Source: Dragon Many Thx

Video
ID                                       : 1
Format                                   : AVC
Format/Info                              : Advanced Video Codec
Format profile                           : High@L4.1
Format settings, CABAC                   : Yes
Format settings, ReFrames                : 4 frames
Codec ID                                 : V_MPEG4/ISO/AVC
Duration                                 : 2h 20mn
Bit rate                                 : 1 864 Kbps
Width                                    : 720 pixels
Height                                   : 288 pixels
Display aspect ratio                     : 2.500
Frame rate mode                          : Constant
Frame rate                               : 23.976 fps
Color space                              : YUV
Chroma subsampling                       : 4:2:0
Bit depth                                : 8 bits
Scan type                                : Progressive
Bits/(Pixel*Frame)                       : 0.375
Stream size                              : 1.79 GiB (89%)
Writing library                          : x264 core 130 r2273 b3065e6


Audio
ID                                       : 2
Format                                   : AC-3
Format/Info                              : Audio Coding 3
Mode extension                           : CM (complete main)
Format settings, Endianness              : Big
Codec ID                                 : A_AC3
Duration                                 : 2h 20mn
Bit rate mode                            : Constant
Bit rate                                 : 192 Kbps
Channel(s)                               : 2 channels
Channel positions                        : Front: L R
Sampling rate                            : 48.0 KHz
Bit depth                                : 16 bits
Compression mode                         : Lossy
Delay relative to video                  : 16ms
Stream size                              : 193 MiB (9%)
Default                                  : Yes
Forced                                   : No

Screens:
 
http://i.imgur.com/bW6fIvz.png 
http://i.imgur.com/mu1k9xu.png 
http://i.imgur.com/Dx1HSIR.png 
http://i.imgur.com/GQPeOS2.png 
http://i.imgur.com/KOwxsHJ.png